<?xml version="1.0" standalone="no"?>
<!DOCTYPE svg PUBLIC "-//W3C//DTD SVG 20010904//EN"
 "http://www.w3.org/TR/2001/REC-SVG-20010904/DTD/svg10.dtd">
<svg version="1.0" xmlns="http://www.w3.org/2000/svg"
 width="1024.000000pt" height="1024.000000pt" viewBox="0 0 1024.000000 1024.000000"
 preserveAspectRatio="xMidYMid meet">
<metadata>
Created by potrace 1.11, written by Peter Selinger 2001-2013
</metadata>
<g transform="translate(0.000000,1024.000000) scale(0.100000,-0.100000)"
fill="#000000" stroke="none">
<path d="M71 10222 c-19 -10 -43 -34 -53 -53 -17 -33 -18 -205 -16 -5059 l3
-5025 23 -32 c14 -20 37 -36 60 -43 25 -7 1640 -10 5040 -10 4629 0 5007 1
5039 16 19 10 42 28 51 43 16 23 17 368 17 5061 l0 5035 -23 32 c-14 20 -37
36 -60 43 -25 7 -1637 10 -5042 10 -4825 0 -5007 -1 -5039 -18z"/>
</g>
</svg>
