<svg width="17" height="17" viewBox="0 0 17 17" fill="none" xmlns="http://www.w3.org/2000/svg">
<path d="M3.28186 5.66667H14.7175L15.1277 4.04762H4.92279V2.42857H16.1796C16.3043 2.42857 16.4273 2.45663 16.5394 2.51061C16.6515 2.56458 16.7496 2.64306 16.8264 2.74007C16.9031 2.83707 16.9564 2.95007 16.9822 3.07045C17.008 3.19084 17.0057 3.31545 16.9754 3.43481L14.9242 11.53C14.8798 11.7051 14.7773 11.8605 14.6332 11.9715C14.489 12.0825 14.3113 12.1429 14.1284 12.1429H2.46139C2.24379 12.1429 2.0351 12.0576 1.88124 11.9058C1.72737 11.7539 1.64093 11.548 1.64093 11.3333V1.61905H0V0H2.46139C2.67899 0 2.88768 0.0852888 3.04155 0.237104C3.19542 0.388919 3.28186 0.594825 3.28186 0.309524V5.66667ZM3.28186 17C2.84666 17 2.42928 16.8294 2.12155 16.5258C1.81381 16.2222 1.64093 15.8104 1.64093 15.381C1.64093 14.9516 1.81381 14.5397 2.12155 14.2361C2.42928 13.9325 2.84666 13.7619 3.28186 13.7619C3.71706 13.7619 4.13444 13.9325 4.44217 14.2361C4.7499 14.5397 4.92279 14.9516 4.92279 15.381C4.92279 15.8104 4.7499 16.2222 4.44217 16.5258C4.13444 16.8294 3.71706 17 3.28186 17ZM13.1274 17C12.6922 17 12.2749 16.8294 11.9671 16.5258C11.6594 16.2222 11.4865 15.8104 11.4865 15.381C11.4865 14.9516 11.6594 14.5397 11.9671 14.2361C12.2749 13.9325 12.6922 13.7619 13.1274 13.7619C13.5626 13.7619 13.98 13.9325 14.2877 14.2361C14.5955 14.5397 14.7684 14.9516 14.7684 15.381C14.7684 15.8104 14.5955 16.2222 14.2877 16.5258C13.98 16.8294 13.5626 17 13.1274 17Z" fill="white"/>
</svg>
