<svg width="114" height="95" viewBox="0 0 114 95" fill="none" xmlns="http://www.w3.org/2000/svg">
<path d="M108.75 34.15H90.2991L69.3134 3.96483C68.6097 2.95232 67.2088 2.69554 66.1849 3.39141L62.4758 5.91226C61.4517 6.60833 61.1921 7.9936 61.896 9.00632L79.3765 34.15H34.6233L52.1038 9.00632C52.8077 7.9936 52.5483 6.60833 51.524 5.91226L47.8146 3.39141C46.7908 2.69554 45.3899 2.95232 44.6862 3.96483L23.7007 34.15H5.25007C4.00744 34.15 3 35.146 3 36.375V40.825C3 42.0538 4.00744 43.05 5.25007 43.05H8.10468L21.8593 85.7987C23.0546 89.5077 26.4999 92 30.4351 92H83.5649C87.5001 92 90.9456 89.5077 92.1408 85.7964L105.895 43.05H108.75C109.993 43.05 111 42.0538 111 40.825V36.375C111 35.146 109.992 34.15 108.75 34.15Z" stroke="#F1F0F4" stroke-width="5"/>
</svg>
