<svg width="51" height="60" viewBox="0 0 51 60" fill="none" xmlns="http://www.w3.org/2000/svg">
<path d="M49.5508 17.7854C50.0684 17.7854 50.4877 17.3661 50.4877 16.8485V8.44001C50.4877 6.889 49.2258 5.62714 47.675 5.62714H41.3131L35.3276 0.240481C35.3167 0.230746 35.3046 0.22356 35.2934 0.214405C35.2728 0.197484 35.252 0.181143 35.2299 0.166077C35.2092 0.151822 35.1882 0.138842 35.1667 0.126441C35.1459 0.11462 35.1252 0.103378 35.1036 0.0930632C35.0784 0.0808943 35.0528 0.070232 35.0268 0.0604969C35.008 0.0535432 34.9893 0.047169 34.9702 0.0413743C34.9388 0.031871 34.9074 0.024106 34.8754 0.0178477C34.861 0.0150663 34.8468 0.0126325 34.8323 0.0105464C34.7932 0.00475167 34.7541 0.00162252 34.7146 0.00104305C34.7097 0.00104305 34.7053 0 34.7009 0H15.7869C15.7742 0 15.7619 0.00254968 15.7491 0.00301326C15.7233 0.00405631 15.6977 0.00614241 15.6719 0.00927156C15.647 0.0122848 15.6227 0.0162252 15.5983 0.0212087C15.5741 0.0261921 15.5504 0.0321028 15.5265 0.0389405C15.502 0.0460101 15.4782 0.0540068 15.4544 0.0630466C15.4317 0.0716228 15.4094 0.0810102 15.3873 0.0915566C15.3639 0.102682 15.3413 0.11462 15.3189 0.127484C15.2982 0.139421 15.2779 0.151822 15.2581 0.165497C15.2357 0.180911 15.2145 0.197368 15.1935 0.214637C15.1825 0.223676 15.1705 0.230746 15.1598 0.240249L9.17444 5.62702H2.81264C1.26174 5.62702 0 6.88888 0 8.4399V56.5252C0 58.0761 1.26186 59.3378 2.81264 59.3378H47.675C49.2259 59.3378 50.4877 58.076 50.4877 56.5252V20.0961C50.4877 19.5785 50.0684 19.1592 49.5508 19.1592C49.0332 19.1592 48.6139 19.5785 48.6139 20.0961V56.5253C48.6139 57.0431 48.1928 57.4642 47.675 57.4642H2.81264C2.29494 57.4642 1.87378 57.043 1.87378 56.5253V8.44001C1.87378 7.9222 2.29506 7.50104 2.81264 7.50104H8.89594L15.7356 24.8833C15.8469 25.1666 16.0889 25.3779 16.3843 25.4502C16.4618 25.4693 16.5403 25.4775 16.6183 25.4767C16.6474 25.4764 16.6764 25.4746 16.7053 25.4715C16.717 25.4702 16.7284 25.4685 16.7403 25.4668C16.7625 25.4635 16.7846 25.4595 16.8065 25.4548C16.8177 25.4524 16.8288 25.4501 16.8398 25.4473C16.8699 25.4395 16.8996 25.4307 16.9288 25.4201C16.9321 25.4189 16.9352 25.4177 16.9383 25.4165C16.9676 25.4053 16.9964 25.3925 17.0247 25.3783C17.0339 25.3737 17.0427 25.3687 17.0519 25.3638C17.0735 25.3521 17.0948 25.3396 17.1155 25.3263C17.124 25.3209 17.1326 25.3155 17.1408 25.3098C17.1686 25.2905 17.1957 25.2702 17.2216 25.2477L20.4092 22.4784L22.1886 25.212L18.561 47.892C18.5087 48.2186 18.6326 48.5484 18.8866 48.7599L24.6441 53.5538C24.6986 53.5991 24.7571 53.6375 24.8187 53.6687C24.8188 53.6689 24.8189 53.6689 24.819 53.669C24.8366 53.6779 24.8546 53.6864 24.8729 53.6942C24.9922 53.7456 25.1184 53.7707 25.2437 53.7707C25.459 53.7707 25.6719 53.6966 25.8433 53.5539L31.6008 48.7602C31.8549 48.5486 31.9788 48.2187 31.9265 47.8922L29.9589 35.5921C29.8771 35.081 29.3974 34.7334 28.8858 34.8148C28.3748 34.8965 28.0269 35.3771 28.1085 35.888L29.9917 47.6615L25.2439 51.6144L20.4956 47.661L23.97 25.9402H26.5288L27.6714 32.4969C27.7603 33.0066 28.2461 33.348 28.7554 33.259C29.2651 33.1703 29.6064 32.6849 29.5175 32.1751L28.2866 25.1121L30.0288 22.4354L33.2658 25.2475C33.2916 25.2699 33.3187 25.2903 33.3464 25.3095C33.3549 25.3154 33.3637 25.3209 33.3724 25.3265C33.3929 25.3396 33.4138 25.352 33.435 25.3635C33.4444 25.3686 33.4536 25.3737 33.463 25.3785C33.4908 25.3924 33.5192 25.4051 33.5482 25.416C33.5521 25.4175 33.5561 25.419 33.56 25.4204C33.5886 25.4307 33.6178 25.4396 33.6473 25.4472C33.6585 25.4501 33.6699 25.4524 33.6812 25.4549C33.703 25.4597 33.7248 25.4635 33.7468 25.4666C33.7587 25.4684 33.7704 25.4701 33.7823 25.4714C33.8109 25.4744 33.8396 25.4761 33.8684 25.4765C33.9466 25.4775 34.0254 25.4692 34.1031 25.45C34.3985 25.3776 34.6405 25.1662 34.7519 24.8831L41.5915 7.5008H47.6748C48.1925 7.5008 48.6137 7.92208 48.6137 8.43978V16.8483C48.6139 17.366 49.0333 17.7854 49.5508 17.7854ZM16.5377 2.50703C16.5383 2.46751 16.5392 2.4288 16.5403 2.39102C16.5409 2.37155 16.5415 2.35196 16.5422 2.33284C16.5437 2.29228 16.5456 2.25276 16.5475 2.21416C16.5482 2.20118 16.5488 2.18751 16.5495 2.17476C16.5524 2.12492 16.5557 2.07694 16.5592 2.0307C16.5604 2.01691 16.5614 2.00393 16.5626 1.99049C16.5654 1.95769 16.5682 1.92535 16.5712 1.89429C16.5717 1.88734 16.5726 1.88073 16.5733 1.87378H33.9135C33.99 2.62617 33.9962 3.97147 33.4561 5.6976C32.7133 8.07054 30.7703 11.6328 25.7697 15.4805C25.7564 15.4907 25.7432 15.501 25.7298 15.5113C25.5708 15.6332 25.4088 15.7555 25.2437 15.8781C25.0746 15.7527 24.9085 15.6276 24.7459 15.5026C24.7096 15.4748 24.6752 15.4471 24.6394 15.4193C24.5123 15.3209 24.3855 15.2224 24.2623 15.1243C24.1991 15.074 24.1384 15.024 24.0761 14.9738C23.983 14.8986 23.8889 14.8232 23.798 14.7483C23.7292 14.6916 23.663 14.635 23.5955 14.5785C23.5143 14.5104 23.4322 14.4423 23.353 14.3745C23.283 14.3147 23.2154 14.2552 23.147 14.1956C23.0733 14.1315 22.9988 14.0672 22.9267 14.0033C22.8575 13.942 22.7906 13.881 22.723 13.8199C22.6545 13.7581 22.5852 13.6962 22.5182 13.6345C22.4508 13.5725 22.3856 13.511 22.3198 13.4493C22.2554 13.3889 22.1904 13.3287 22.1275 13.2685C22.0624 13.2064 21.9993 13.1446 21.9357 13.0827C21.8748 13.0235 21.8137 12.9643 21.7542 12.9053C21.6916 12.8432 21.6309 12.7817 21.5698 12.7199C21.5122 12.6617 21.4544 12.6034 21.3981 12.5455C21.3378 12.4835 21.2794 12.4218 21.2206 12.3601C21.1663 12.303 21.1117 12.246 21.0586 12.1891C21.0009 12.1274 20.9447 12.0659 20.8885 12.0045C20.837 11.9483 20.7854 11.892 20.7351 11.8361C20.6801 11.7749 20.6263 11.7139 20.5728 11.653C20.5241 11.5974 20.4752 11.5422 20.4276 11.487C20.3751 11.4261 20.3236 11.3655 20.2725 11.3052C20.2264 11.2506 20.1805 11.1961 20.1355 11.1419C20.0857 11.0816 20.0368 11.0218 19.9883 10.9621C19.9445 10.9081 19.901 10.8542 19.8583 10.8004C19.8111 10.741 19.7646 10.6818 19.7186 10.6228C19.6773 10.5697 19.6363 10.5167 19.5961 10.4639C19.5513 10.405 19.5071 10.3465 19.4634 10.2879C19.4245 10.2356 19.3859 10.1835 19.3479 10.1316C19.3056 10.0737 19.2639 10.0159 19.2227 9.95835C19.1857 9.90666 19.1494 9.85508 19.1134 9.80374C19.0736 9.74672 19.0343 9.68993 18.9954 9.63338C18.9606 9.58239 18.9264 9.53162 18.8925 9.48098C18.8551 9.425 18.818 9.36902 18.7817 9.31363C18.7487 9.26321 18.7165 9.21291 18.6845 9.16296C18.6494 9.10803 18.6145 9.05321 18.5807 8.99886C18.5497 8.94914 18.5196 8.89988 18.4894 8.85063C18.4565 8.79674 18.424 8.74296 18.3922 8.68965C18.363 8.64039 18.3345 8.5916 18.3061 8.54258C18.2757 8.49031 18.2454 8.43804 18.2161 8.38635C18.1884 8.33745 18.1616 8.28889 18.1347 8.24044C18.1067 8.18956 18.0784 8.13869 18.0513 8.08827C18.0253 8.04006 18.0004 7.99231 17.9753 7.9448C17.9493 7.89519 17.923 7.84547 17.8979 7.79634C17.8736 7.74859 17.8502 7.70142 17.8267 7.65413C17.8028 7.60615 17.7786 7.55794 17.7556 7.51042C17.7327 7.46302 17.7108 7.41632 17.6886 7.36938C17.6667 7.32314 17.6447 7.27666 17.6237 7.231C17.6019 7.1836 17.5815 7.13701 17.5607 7.09031C17.5411 7.04627 17.5209 7.00176 17.5019 6.95819C17.4814 6.91079 17.462 6.8642 17.4425 6.81749C17.4248 6.77554 17.4068 6.73324 17.3898 6.69186C17.3704 6.644 17.3521 6.59729 17.3335 6.55024C17.318 6.51107 17.3019 6.47131 17.287 6.43261C17.2682 6.38335 17.2505 6.33514 17.2327 6.28681C17.2196 6.25135 17.2058 6.2153 17.1932 6.18042C17.1737 6.12606 17.1556 6.0731 17.1372 6.01991C17.1276 5.99197 17.1173 5.96335 17.108 5.93553C17.081 5.8551 17.0551 5.77572 17.0308 5.69783C17 5.59944 16.9715 5.50255 16.9441 5.40682C16.9358 5.37739 16.9279 5.34841 16.9199 5.31921C16.9012 5.25176 16.8833 5.18477 16.8662 5.11859C16.8582 5.08753 16.8502 5.05647 16.8426 5.02565C16.8254 4.95657 16.8092 4.88831 16.7939 4.82075C16.7887 4.79745 16.7829 4.77404 16.7778 4.75109C16.7581 4.66197 16.7397 4.57424 16.7228 4.4879C16.7192 4.46958 16.7161 4.45162 16.7127 4.43343C16.6997 4.36505 16.6873 4.29737 16.6759 4.23084C16.6712 4.20303 16.6668 4.17556 16.6624 4.14786C16.653 4.0898 16.6442 4.03232 16.6358 3.97576C16.6321 3.9498 16.6282 3.92349 16.6247 3.89776C16.6154 3.8302 16.6071 3.76367 16.5994 3.69842C16.5981 3.6866 16.5963 3.67409 16.5949 3.66215C16.5863 3.58577 16.5789 3.51125 16.5724 3.43789C16.5705 3.41576 16.5688 3.3942 16.5671 3.3723C16.5628 3.32049 16.559 3.26938 16.5556 3.2192C16.554 3.19463 16.5525 3.17018 16.5511 3.14595C16.5482 3.09682 16.5459 3.0486 16.5438 3.0012C16.5429 2.98127 16.542 2.96087 16.5413 2.94117C16.5391 2.87604 16.5373 2.81229 16.5365 2.75041C16.5364 2.73974 16.5365 2.72966 16.5364 2.71923C16.5359 2.66731 16.5358 2.61643 16.5363 2.56683C16.5371 2.5462 16.5373 2.52673 16.5377 2.50703ZM19.9933 20.3578C19.9929 20.358 19.9927 20.3584 19.9923 20.3588L16.9941 22.9637L10.644 6.82584L14.6682 3.20413C14.6685 3.21155 14.6691 3.2192 14.6695 3.22662C14.6701 3.24134 14.6712 3.2564 14.6721 3.27124C14.6753 3.32548 14.6787 3.38029 14.6829 3.43592C14.6839 3.44925 14.6848 3.46258 14.6858 3.47602C14.6907 3.54046 14.6963 3.60594 14.7025 3.67223C14.7041 3.68973 14.7058 3.70735 14.7076 3.72496C14.7135 3.78453 14.7199 3.8448 14.7268 3.90587C14.7281 3.917 14.7291 3.92789 14.7304 3.93902C14.7385 4.00775 14.7476 4.07763 14.7571 4.14809C14.7597 4.16768 14.7624 4.18738 14.7653 4.2072C14.7749 4.27581 14.7851 4.345 14.7962 4.41523C14.7974 4.42195 14.7983 4.42867 14.7994 4.43551C14.8108 4.5076 14.8235 4.58073 14.8367 4.65432C14.8404 4.67495 14.8441 4.69569 14.8479 4.71644C14.8618 4.79189 14.8763 4.8678 14.892 4.94498C14.8944 4.95646 14.8968 4.96805 14.8993 4.97975C14.9135 5.04859 14.9285 5.11825 14.9442 5.18848C14.949 5.2098 14.9537 5.23113 14.9586 5.25257C14.9767 5.33138 14.9956 5.41088 15.0156 5.49131C15.0198 5.50765 15.024 5.52422 15.0283 5.54057C15.0459 5.61022 15.0643 5.68057 15.0834 5.75138C15.0891 5.77224 15.0946 5.79298 15.1005 5.81396C15.1231 5.89601 15.1468 5.97888 15.1715 6.06255C15.1775 6.08295 15.1839 6.10335 15.1899 6.12386C15.2117 6.19595 15.2342 6.26861 15.2575 6.34186C15.2636 6.3611 15.2697 6.38022 15.2758 6.39958C15.3035 6.48522 15.3326 6.57168 15.3626 6.65883C15.3705 6.68166 15.3787 6.70484 15.3867 6.72779C15.4138 6.80509 15.4418 6.88297 15.471 6.96143C15.4769 6.97719 15.4823 6.99261 15.4882 7.00848C15.5217 7.09784 15.5567 7.18812 15.5926 7.27887C15.6023 7.30344 15.6123 7.32835 15.6223 7.35304C15.6572 7.43961 15.6929 7.52653 15.73 7.61438C15.7335 7.62249 15.7367 7.63061 15.7401 7.63872C15.7798 7.73213 15.8216 7.82647 15.864 7.92115C15.8755 7.94677 15.887 7.97249 15.8989 7.99822C15.9422 8.09326 15.9865 8.18875 16.0326 8.28506C16.0381 8.29654 16.044 8.30836 16.0496 8.31983C16.0919 8.40779 16.1359 8.49622 16.1807 8.58511C16.1937 8.61096 16.2068 8.6368 16.2201 8.66276C16.2697 8.76 16.3207 8.8577 16.3732 8.95609C16.383 8.97429 16.393 8.9926 16.403 9.01079C16.4497 9.09725 16.4977 9.18429 16.5468 9.27167C16.5606 9.29601 16.5741 9.32035 16.588 9.34492C16.6446 9.44482 16.7031 9.5453 16.763 9.64636C16.7763 9.66884 16.7901 9.69133 16.8035 9.71392C16.856 9.80154 16.9098 9.88962 16.9649 9.97805C16.9789 10.0005 16.9924 10.0229 17.0066 10.0454C17.0708 10.1477 17.1367 10.2505 17.2043 10.3537C17.221 10.3793 17.2381 10.4049 17.2552 10.4305C17.316 10.5225 17.3781 10.6149 17.4415 10.7077C17.4538 10.7256 17.4656 10.7432 17.4779 10.761C17.5505 10.8663 17.6253 10.972 17.7014 11.0782C17.7208 11.1055 17.7408 11.1327 17.7605 11.1599C17.8333 11.2604 17.9075 11.3611 17.9836 11.4625C17.991 11.4724 17.9981 11.482 18.0055 11.4919C18.0873 11.6003 18.1717 11.7093 18.2573 11.8186C18.2792 11.8465 18.3012 11.8745 18.3234 11.9025C18.4103 12.0122 18.4986 12.1224 18.5896 12.2331C18.5972 12.2424 18.6052 12.2518 18.6129 12.2609C18.6983 12.3647 18.7859 12.4687 18.8749 12.5732C18.8989 12.6012 18.9229 12.6294 18.9471 12.6576C19.0426 12.7684 19.1395 12.8795 19.2391 12.9911C19.2547 13.0086 19.2707 13.0261 19.2865 13.0436C19.3755 13.1429 19.4664 13.2426 19.559 13.3425C19.5841 13.3695 19.6088 13.3965 19.634 13.4234C19.7384 13.5353 19.8447 13.6474 19.9534 13.7599C19.9759 13.7833 19.999 13.8066 20.0218 13.83C20.1174 13.9283 20.2147 14.0269 20.3136 14.1256C20.3382 14.1501 20.3627 14.1747 20.3875 14.1994C20.5016 14.3126 20.6182 14.4261 20.7369 14.5399C20.7649 14.5669 20.7935 14.5939 20.8219 14.6208C20.9274 14.7211 21.0344 14.8216 21.1434 14.9223C21.1659 14.9431 21.1879 14.9638 21.2105 14.9846C21.3352 15.0991 21.4626 15.214 21.5919 15.3291C21.6249 15.3583 21.6581 15.3878 21.6914 15.4171C21.812 15.5236 21.9345 15.6303 22.0592 15.7373C22.0749 15.7506 22.0899 15.7641 22.1056 15.7774C22.2418 15.8936 22.3812 16.0104 22.5223 16.1271C22.5593 16.1577 22.5965 16.1883 22.6337 16.2188C22.777 16.3365 22.9221 16.4542 23.0704 16.5722C23.0805 16.5802 23.091 16.5883 23.1011 16.5964C23.2419 16.7083 23.3856 16.8201 23.5312 16.9322C23.5715 16.9632 23.612 16.9944 23.6528 17.0256C23.6843 17.0496 23.715 17.0737 23.7467 17.0977L23.109 17.6515L19.9933 20.3578ZM26.7314 24.0664H23.6791L21.8378 21.2374L25.2053 18.3118L28.5727 21.2374L26.7314 24.0664ZM33.494 22.9637L26.7415 17.0973C26.7734 17.0731 26.8042 17.0491 26.8358 17.0249C26.8762 16.9941 26.9163 16.9632 26.9562 16.9323C27.102 16.82 27.2462 16.7077 27.3874 16.5956C27.3973 16.5877 27.4076 16.5797 27.4176 16.5719C27.5658 16.4539 27.7106 16.3364 27.8538 16.2188C27.8916 16.1879 27.9292 16.157 27.9665 16.126C28.1073 16.0094 28.2463 15.8932 28.3822 15.7772C28.3983 15.7634 28.414 15.7497 28.4299 15.7359C28.5541 15.6295 28.6759 15.5232 28.7959 15.4172C28.8297 15.3874 28.8634 15.3578 28.8968 15.328C29.0255 15.2135 29.1524 15.099 29.2767 14.9848C29.3003 14.963 29.3233 14.9413 29.3469 14.9197C29.4545 14.8202 29.5601 14.721 29.6642 14.6219C29.6937 14.594 29.7233 14.566 29.7524 14.538C29.8702 14.4251 29.9859 14.3123 30.0993 14.2C30.1255 14.174 30.1511 14.148 30.1772 14.1221C30.2741 14.0253 30.3694 13.9287 30.4631 13.8323C30.4873 13.8075 30.5119 13.7826 30.5359 13.7578C30.6436 13.6461 30.7491 13.535 30.8526 13.4239C30.8788 13.3959 30.9045 13.3678 30.9306 13.3399C31.0211 13.242 31.1104 13.1443 31.1977 13.0468C31.2151 13.0275 31.2329 13.0081 31.2501 12.9888C31.3489 12.8781 31.4449 12.7679 31.5396 12.658C31.5647 12.629 31.5893 12.5999 31.614 12.571C31.7015 12.4684 31.7875 12.3662 31.8714 12.2643C31.8805 12.2533 31.8897 12.2423 31.8988 12.2315C31.9888 12.1219 32.0763 12.0128 32.1623 11.904C32.1856 11.8747 32.2087 11.8452 32.2316 11.8159C32.3165 11.7078 32.4 11.5996 32.4812 11.4923C32.4898 11.4809 32.4982 11.4694 32.5068 11.4579C32.5815 11.3585 32.6542 11.2596 32.7257 11.161C32.7462 11.1327 32.7665 11.1047 32.7868 11.0765C32.8623 10.971 32.9365 10.8661 33.0086 10.7617C33.0219 10.7424 33.0347 10.7232 33.048 10.704C33.1103 10.6129 33.1713 10.5223 33.231 10.4319C33.2486 10.4052 33.2663 10.3786 33.2838 10.3519C33.3509 10.2495 33.4164 10.1474 33.48 10.046C33.4949 10.0222 33.5093 9.99879 33.524 9.97515C33.5781 9.88823 33.6309 9.80166 33.6826 9.71543C33.6968 9.69191 33.7111 9.66838 33.7252 9.64485C33.7846 9.54484 33.8423 9.44528 33.8987 9.34619C33.9134 9.32035 33.9276 9.29462 33.9421 9.26889C33.9902 9.18336 34.0372 9.09795 34.083 9.01334C34.0936 8.99399 34.1044 8.9744 34.1148 8.95505C34.1671 8.85735 34.2176 8.76046 34.2669 8.66381C34.2806 8.63692 34.2941 8.61003 34.3075 8.58337C34.3515 8.49622 34.3943 8.40953 34.4359 8.32331C34.4423 8.31021 34.4489 8.297 34.4552 8.28379C34.501 8.18829 34.5449 8.09361 34.5878 7.99938C34.5999 7.97273 34.6119 7.94619 34.6239 7.91965C34.6661 7.82566 34.7074 7.73225 34.7469 7.63953C34.7512 7.62956 34.7551 7.61971 34.7593 7.60963C34.7957 7.52364 34.8306 7.43857 34.8648 7.35373C34.8751 7.32812 34.8854 7.30251 34.8955 7.2769C34.931 7.18708 34.9657 7.09761 34.999 7.00906C35.0055 6.9918 35.0115 6.97476 35.0178 6.95749C35.0462 6.88089 35.0736 6.80486 35.1 6.72941C35.1085 6.7053 35.1171 6.68108 35.1254 6.65709C35.1552 6.57087 35.1838 6.48534 35.2114 6.4005C35.2181 6.37987 35.2244 6.35936 35.231 6.33896C35.2538 6.26734 35.2758 6.1963 35.2972 6.12572C35.3036 6.10428 35.3103 6.08272 35.3166 6.0614C35.3411 5.97865 35.3646 5.89659 35.387 5.81547C35.3932 5.79298 35.3991 5.77085 35.4051 5.74848C35.4236 5.67999 35.4414 5.61207 35.4584 5.54474C35.463 5.52619 35.468 5.50765 35.4725 5.48922C35.4922 5.41018 35.5107 5.33184 35.5286 5.25431C35.5338 5.23136 35.5389 5.20853 35.544 5.18581C35.5591 5.11813 35.5738 5.0508 35.5875 4.98427C35.5903 4.97083 35.5934 4.95704 35.5959 4.94371C35.6113 4.86791 35.6257 4.79305 35.6393 4.71887C35.6434 4.69639 35.6475 4.67391 35.6516 4.65154C35.6641 4.58177 35.6759 4.51247 35.6869 4.4442C35.6889 4.43169 35.6908 4.4194 35.6928 4.40689C35.7034 4.34059 35.713 4.275 35.722 4.20998C35.725 4.18866 35.7281 4.1671 35.7309 4.14589C35.7403 4.07693 35.749 4.00844 35.757 3.94111C35.7586 3.92685 35.7602 3.91306 35.7618 3.89892C35.7683 3.84144 35.7743 3.78477 35.7799 3.72867C35.7818 3.70897 35.7837 3.68904 35.7857 3.66945C35.7917 3.60513 35.7971 3.5415 35.8019 3.47904C35.8032 3.46211 35.8043 3.44554 35.8055 3.42885C35.8091 3.3774 35.8124 3.32663 35.8153 3.27645C35.8164 3.25884 35.8174 3.24122 35.8183 3.22372C35.8187 3.21723 35.819 3.21062 35.8195 3.20413L39.8438 6.82584L33.494 22.9637Z" fill="#CC3333"/>
<path d="M36.1078 34.0767C35.5903 34.0767 35.171 34.496 35.171 35.0135C35.171 35.5311 35.5903 35.9504 36.1078 35.9504H44.8614C45.3789 35.9504 45.7982 35.5311 45.7982 35.0135C45.7982 34.496 45.3789 34.0767 44.8614 34.0767H36.1078Z" fill="#CC3333"/>
<path d="M21.3756 6.09058H29.0352C29.5528 6.09058 29.9721 5.67127 29.9721 5.15369C29.9721 4.6361 29.5528 4.2168 29.0352 4.2168H21.3756C20.8581 4.2168 20.4387 4.6361 20.4387 5.15369C20.4387 5.67116 20.8582 6.09058 21.3756 6.09058Z" fill="#CC3333"/>
</svg>
