<svg width="60" height="60" viewBox="0 0 60 60" fill="none" xmlns="http://www.w3.org/2000/svg">
<path d="M59.1195 11.1676H51.0255V8.97129C51.0257 4.02445 47.0005 0 42.053 0C40.5977 0 39.2236 0.350391 38.007 0.967852C36.7903 0.350391 35.4161 0 33.9608 0C29.0133 0 24.9881 4.02445 24.9881 8.97129V11.1676H15.5692C15.0829 11.1676 14.6885 11.5618 14.6885 12.0483V20.0258C14.1364 19.8636 13.5529 19.7759 12.949 19.7759C9.53555 19.7759 6.75855 22.5525 6.75855 25.9655V27.1038H0.880781C0.394336 27.1037 0.000117188 27.498 0.000117188 27.9844V33.8225C0.000117188 34.3089 0.394336 34.7032 0.880781 34.7032C1.36711 34.7032 1.76145 34.3089 1.76145 33.8225V28.865H6.75855V30.4627C6.27891 30.7591 5.9577 31.2882 5.9577 31.8922C5.9577 32.8193 6.71203 33.5736 7.63922 33.5736C8.56641 33.5736 9.32063 32.8194 9.32063 31.8922C9.32063 31.2882 8.99941 30.7591 8.51976 30.4627V28.865H17.3782V30.4627C16.8986 30.7591 16.5773 31.2882 16.5773 31.8922C16.5773 32.8193 17.3317 33.5736 18.2589 33.5736C19.1859 33.5736 19.9403 32.8194 19.9403 31.8922C19.9403 31.2882 19.6191 30.7591 19.1394 30.4627V28.865H24.1365V57.5888C24.1365 57.9471 23.845 58.2387 23.4866 58.2388H23.4864H23.4862H2.41137C2.05289 58.2388 1.76133 57.9472 1.76133 57.5888V37.3451C1.76133 36.8587 1.36699 36.4644 0.880664 36.4644C0.394336 36.4644 0 36.8587 0 37.3451V57.5888C0.000117188 58.9184 1.08176 60 2.41137 60H23.4864H23.4865H27.9267H50.0196H50.0197H56.7865C58.5586 60 60.0001 58.5586 60.0001 56.7868V12.0482C60.0001 11.5618 59.6059 11.1676 59.1195 11.1676ZM12.0683 27.1037H8.51976V25.9654C8.51976 23.5235 10.5067 21.5371 12.949 21.5371C13.2567 21.5371 13.5571 21.5688 13.8473 21.6288C12.7481 22.7464 12.0684 24.2779 12.0684 25.9655V27.1037H12.0683ZM14.6885 27.1037H13.8295V25.9654C13.8295 24.9873 14.1492 24.083 14.6885 23.3494V27.1037ZM42.053 1.76121C46.0293 1.76121 49.2643 4.99559 49.2643 8.97129V11.1676H42.9336V8.97129C42.9336 6.2352 41.7008 3.78293 39.763 2.13609C40.4831 1.89434 41.2526 1.76121 42.053 1.76121ZM38.007 3.00621C39.9159 4.30465 41.1724 6.49383 41.1724 8.97117V11.1675H34.8415V8.97129C34.8415 6.49395 36.098 4.30477 38.007 3.00621ZM26.7495 8.97129C26.7495 4.9957 29.9845 1.76121 33.9609 1.76121C34.7613 1.76121 35.5309 1.89422 36.2509 2.13598C34.3131 3.78281 33.0803 6.2352 33.0803 8.97117V11.1675H26.7495V8.97129ZM17.3782 27.1037H16.4497V23.2579C17.0309 24.007 17.3782 24.9461 17.3782 25.9652V27.1037ZM22.6881 27.1037H19.1395V25.9654C19.1395 24.2777 18.4598 22.7464 17.3606 21.6287C17.6508 21.5687 17.9513 21.537 18.259 21.537C20.7013 21.537 22.6882 23.5235 22.6882 25.9652V27.1037H22.6881ZM58.2389 56.7868C58.2389 57.5875 57.5873 58.2387 56.7866 58.2387H52.885C53.1071 57.8021 53.2332 57.309 53.2332 56.7866V24.758C53.2332 24.2716 52.839 23.8773 52.3526 23.8773C51.8661 23.8773 51.4719 24.2716 51.4719 24.758V56.7867C51.4719 57.5873 50.8205 58.2388 50.0198 58.2388H30.2468C30.3049 58.0317 30.3383 57.8143 30.3383 57.5889V49.9161C30.3383 49.4298 29.944 49.0355 29.4577 49.0355C28.9713 49.0355 28.577 49.4298 28.577 49.9161V57.5889C28.577 57.9472 28.2853 58.2387 27.927 58.2388H27.9268C27.9267 58.2388 27.9267 58.2388 27.9267 58.2388H25.8066C25.8647 58.0316 25.8981 57.8142 25.8981 57.5888V28.865H28.5771V46.3937C28.5771 46.88 28.9713 47.2744 29.4578 47.2744C29.9441 47.2744 30.3383 46.88 30.3383 46.3937V27.9844C30.3383 27.498 29.9441 27.1037 29.4578 27.1037H24.4495V25.9654C24.4495 22.5524 21.6725 19.7757 18.2591 19.7757C17.6296 19.7757 17.0228 19.8722 16.4501 20.0479V12.9288H24.9885V16.5739C24.5088 16.8704 24.1876 17.3994 24.1876 18.0035C24.1876 18.9306 24.942 19.6849 25.8691 19.6849C26.7963 19.6849 27.5505 18.9307 27.5505 18.0035C27.5505 17.3995 27.2293 16.8704 26.7497 16.5739V12.9288H41.1727V16.5739C40.693 16.8704 40.3718 17.3994 40.3718 18.0035C40.3718 18.9306 41.126 19.6849 42.0532 19.6849C42.9804 19.6849 43.7346 18.9307 43.7346 18.0035C43.7346 17.3995 43.4134 16.8704 42.9338 16.5739V12.9288H51.472V21.2354C51.472 21.7218 51.8663 22.1161 52.3527 22.1161C52.8391 22.1161 53.2334 21.7218 53.2334 21.2354V12.9288H58.239V56.7868H58.2389Z" fill="#CC3333"/>
<path d="M6.58138 49.8015C6.84914 49.8015 7.0662 50.0186 7.0662 50.2863C7.0662 50.5541 6.84914 50.7711 6.58138 50.7711L5.5764 50.7711C5.10504 50.7711 4.72292 51.1533 4.72292 51.6246C4.72292 52.096 5.10504 52.4781 5.5764 52.4781L6.50058 52.4781C6.76834 52.4781 6.9854 52.6952 6.9854 52.9629C6.9854 53.2307 6.76834 53.4477 6.50058 53.4477L5.72292 53.4477C5.17064 53.4477 4.72292 53.8954 4.72292 54.4477L4.72292 56.0233C4.72292 56.3078 4.4923 56.5384 4.2078 56.5384C3.92331 56.5384 3.69269 56.3078 3.69269 56.0233L3.69269 50.8015C3.69269 50.2492 4.1404 49.8015 4.69269 49.8015L6.58138 49.8015Z" fill="#CC3333"/>
<path d="M8.23981 50.8015C8.23981 50.2492 8.68753 49.8015 9.23981 49.8015L9.44175 49.8015C10.2363 49.8015 10.8289 49.9328 11.2194 50.1954C11.7514 50.5523 12.0173 51.0809 12.0173 51.7812C12.0173 52.2593 11.8793 52.6666 11.6032 53.0033C11.2227 53.4789 10.9239 54.2099 11.283 54.7019L12.0442 55.7449C12.285 56.0748 12.0494 56.5384 11.641 56.5384C11.4781 56.5384 11.3254 56.4589 11.232 56.3254L9.48754 53.8321C9.46517 53.8001 9.42861 53.781 9.38959 53.781C9.32357 53.781 9.27004 53.8346 9.27004 53.9006L9.27004 56.0233C9.27004 56.3078 9.03942 56.5384 8.75493 56.5384C8.47044 56.5384 8.23981 56.3078 8.23981 56.0233L8.23981 50.8015ZM9.62356 50.7509C9.42832 50.7509 9.27005 50.9092 9.27005 51.1045L9.27004 52.569C9.27004 52.7475 9.41475 52.8922 9.59326 52.8922C9.68079 52.8922 9.76833 52.8889 9.85586 52.8821C9.9434 52.8754 10.0612 52.8518 10.2094 52.8114C10.3642 52.771 10.4956 52.7171 10.6033 52.6498C10.7178 52.5757 10.8154 52.4646 10.8962 52.3165C10.9837 52.1684 11.0275 51.9933 11.0275 51.7913C11.0275 51.0977 10.5595 50.7509 9.62356 50.7509Z" fill="#CC3333"/>
<path d="M16.8673 49.8015C17.1351 49.8015 17.3521 50.0186 17.3521 50.2863C17.3521 50.5541 17.1351 50.7711 16.8673 50.7711L15.5189 50.7711C15.0476 50.7711 14.6654 51.1533 14.6654 51.6246C14.6654 52.096 15.0476 52.4781 15.5189 52.4781L16.7865 52.4781C17.0543 52.4781 17.2713 52.6952 17.2713 52.9629C17.2713 53.2307 17.0543 53.4477 16.7865 53.4477L15.6654 53.4477C15.1132 53.4477 14.6654 53.8955 14.6654 54.4477L14.6654 54.5688C14.6654 55.1211 15.1132 55.5688 15.6654 55.5688L16.8673 55.5688C17.1351 55.5688 17.3521 55.7859 17.3521 56.0536C17.3521 56.3214 17.1351 56.5384 16.8673 56.5384L14.6352 56.5384C14.0829 56.5384 13.6352 56.0907 13.6352 55.5384L13.6352 50.8015C13.6352 50.2492 14.0829 49.8015 14.6352 49.8015L16.8673 49.8015Z" fill="#CC3333"/>
<path d="M21.9175 49.8015C22.1852 49.8015 22.4023 50.0186 22.4023 50.2863C22.4023 50.5541 22.1852 50.7711 21.9175 50.7711L20.5691 50.7711C20.0977 50.7711 19.7156 51.1533 19.7156 51.6246C19.7156 52.096 20.0977 52.4781 20.5691 52.4781L21.8367 52.4781C22.1044 52.4781 22.3215 52.6952 22.3215 52.9629C22.3215 53.2307 22.1044 53.4477 21.8367 53.4477L20.7156 53.4477C20.1633 53.4477 19.7156 53.8955 19.7156 54.4477L19.7156 54.5688C19.7156 55.1211 20.1633 55.5688 20.7156 55.5688L21.9175 55.5688C22.1852 55.5688 22.4023 55.7859 22.4023 56.0536C22.4023 56.3214 22.1852 56.5384 21.9175 56.5384L19.6854 56.5384C19.1331 56.5384 18.6854 56.0907 18.6854 55.5384L18.6854 50.8015C18.6854 50.2492 19.1331 49.8015 19.6854 49.8015L21.9175 49.8015Z" fill="#CC3333"/>
</svg>
