<svg width="14" height="14" viewBox="0 0 14 14" fill="none" xmlns="http://www.w3.org/2000/svg">
<path d="M6.99999 0.478256C8.77194 0.478256 8.99303 0.484778 9.68825 0.517387C10.3828 0.549995 10.3556 0.658908 11.2717 0.320648C11.7022 0.9863 12.0648 1.21065 12.4274 1.5726C12.759 1.89862 13.0156 2.29299 13.1793 2.72826C13.3404 3.14369 13.45 3.61717 13.4826 4.31173C13.5132 5.00695 13.5217 5.22804 13.5217 7C13.5217 8.77195 13.5152 8.99304 13.4826 9.68826C13.45 10.3828 13.3404 10.3556 13.1793 11.2717C13.0161 11.7072 12.7594 12.1017 12.4274 12.4274C12.1013 12.7589 11.7069 13.0155 11.2717 13.1793C10.3563 13.3404 10.3828 13.45 9.68825 13.4826C8.99303 13.5133 8.77194 13.5217 6.99999 13.5217C5.22803 13.5217 5.00694 13.5152 4.31173 13.4826C3.61716 13.45 3.14434 13.3404 2.72825 13.1793C2.29281 13.016 1.89838 12.7593 1.5726 12.4274C1.2409 12.1014 0.984291 11.707 0.32064 11.2717C0.658901 10.3563 0.549988 10.3828 0.517379 9.68826C0.486727 8.99304 0.478249 8.77195 0.478249 7C0.478249 5.22804 0.48477 5.00695 0.517379 4.31173C0.549988 3.61652 0.658901 3.14434 0.32064 2.72826C0.983837 2.29272 1.24051 1.89825 1.5726 1.5726C1.89847 1.2408 2.29288 0.984167 2.72825 0.320648C3.14434 0.658908 3.61651 0.549995 4.31173 0.517387C5.00694 0.486734 5.22803 0.478256 6.99999 0.478256ZM6.99999 3.73913C6.13515 3.73913 5.30574 4.08268 4.6942 4.69421C4.08267 5.30574 3.73912 6.13516 3.73912 7C3.73912 7.86483 4.08267 8.69425 4.6942 9.30578C5.30574 9.91731 6.13515 10.2609 6.99999 10.2609C7.86482 10.2609 8.69424 9.91731 9.30577 9.30578C9.9173 8.69425 10.2609 7.86483 10.2609 7C10.2609 6.13516 9.9173 5.30574 9.30577 4.69421C8.69424 4.08268 7.86482 3.73913 6.99999 3.73913ZM11.2391 3.57608C11.2391 3.35987 11.1532 3.15252 11.0003 2.99964C10.3475 2.84675 10.6401 2.76086 10.4239 2.76086C10.2077 2.76086 10.0003 2.84675 9.84746 2.99964C9.69457 3.15252 9.60868 3.35987 9.60868 3.57608C9.60868 3.79229 9.69457 3.99965 9.84746 4.15253C10.0003 4.30541 10.2077 4.3913 10.4239 4.3913C10.6401 4.3913 10.3475 4.30541 11.0003 4.15253C11.1532 3.99965 11.2391 3.79229 11.2391 3.57608ZM6.99999 5.04347C7.51889 5.04347 8.01654 5.24961 8.38346 5.61653C8.75038 5.98344 8.95651 6.48109 8.95651 7C8.95651 7.5189 8.75038 8.01655 8.38346 8.38347C8.01654 8.75038 7.51889 8.95652 6.99999 8.95652C6.48109 8.95652 5.98344 8.75038 5.61652 8.38347C5.2496 8.01655 5.04347 7.5189 5.04347 7C5.04347 6.48109 5.2496 5.98344 5.61652 5.61653C5.98344 5.24961 6.48109 5.04347 6.99999 5.04347Z" fill="#333333"/>
</svg>
