<svg width="12" height="11" viewBox="0 0 12 11" fill="none" xmlns="http://www.w3.org/2000/svg">
<path d="M0 4.07786e-07H11.694C11.7475 -8.47505e-05 11.8002 0.0131693 11.8466 0.0384338C11.893 0.0636984 11.9317 0.100086 11.9586 0.143949C11.9855 0.187812 11.9998 0.23761 12 0.288351C12.0002 0.339092 11.9863 0.388993 11.9598 0.433053L9.77654 4.05263L11.9598 7.67221C11.9863 7.71627 12.0002 7.76617 12 7.81691C11.9998 7.86765 11.9855 7.91745 11.9586 7.96132C11.9317 8.00518 11.893 8.04157 11.8466 8.06683C11.8002 8.09209 11.7475 8.10535 11.694 8.10526H1.22207V11H0V4.07786e-07Z" fill="#C4C4C4"/>
</svg>
